<mxfile host="app.diagrams.net" modified="2023-11-11T15:58:22.005Z" agent="Mozilla/5.0 (X11; Ubuntu; Linux x86_64; rv:109.0) Gecko/20100101 Firefox/119.0" version="22.1.0" etag="9ulQQipn193f31Zpp8OH" type="device">
  <diagram name="PÃ¡gina-1" id="OQPNhpq00jlVtxKzGsJJ">
    <mxGraphModel dx="880" dy="481" grid="1" gridSize="10" guides="1" tooltips="1" connect="1" arrows="1" fold="1" page="1" pageScale="1" pageWidth="827" pageHeight="1169" math="0" shadow="0">
      <root>
        <mxCell id="0" />
        <mxCell id="1" parent="0" />
        <mxCell id="-Nvpflhu0W0NFWy76Kld-22" style="edgeStyle=orthogonalEdgeStyle;rounded=0;orthogonalLoop=1;jettySize=auto;html=1;endArrow=block;endFill=0;endSize=12;" parent="1" source="2" target="-Nvpflhu0W0NFWy76Kld-14" edge="1">
          <mxGeometry relative="1" as="geometry">
            <Array as="points">
              <mxPoint x="290" y="510" />
              <mxPoint x="290" y="510" />
            </Array>
            <mxPoint x="400" y="314" as="targetPoint" />
          </mxGeometry>
        </mxCell>
        <mxCell id="-Nvpflhu0W0NFWy76Kld-33" style="edgeStyle=orthogonalEdgeStyle;rounded=0;orthogonalLoop=1;jettySize=auto;html=1;endArrow=open;dashed=1;endFill=0;endSize=10;" parent="1" source="2" target="-Nvpflhu0W0NFWy76Kld-20" edge="1">
          <mxGeometry relative="1" as="geometry">
            <Array as="points">
              <mxPoint x="410" y="630" />
              <mxPoint x="410" y="630" />
            </Array>
          </mxGeometry>
        </mxCell>
        <mxCell id="-Nvpflhu0W0NFWy76Kld-14" value="Observer" style="swimlane;fontStyle=1;align=center;verticalAlign=top;childLayout=stackLayout;horizontal=1;startSize=30;horizontalStack=0;resizeParent=1;resizeParentMax=0;resizeLast=0;collapsible=0;marginBottom=0;whiteSpace=wrap;html=1;" parent="1" vertex="1">
          <mxGeometry x="255" y="490" width="70" height="38" as="geometry" />
        </mxCell>
        <mxCell id="-Nvpflhu0W0NFWy76Kld-15" value="" style="line;strokeWidth=1;fillColor=none;align=left;verticalAlign=middle;spacingTop=-1;spacingLeft=3;spacingRight=3;rotatable=0;labelPosition=right;points=[];portConstraint=eastwest;strokeColor=inherit;" parent="-Nvpflhu0W0NFWy76Kld-14" vertex="1">
          <mxGeometry y="30" width="70" height="8" as="geometry" />
        </mxCell>
        <mxCell id="-Nvpflhu0W0NFWy76Kld-36" style="edgeStyle=orthogonalEdgeStyle;rounded=0;orthogonalLoop=1;jettySize=auto;html=1;endArrow=block;endFill=0;endSize=12;" parent="1" source="-Nvpflhu0W0NFWy76Kld-20" target="-Nvpflhu0W0NFWy76Kld-53" edge="1">
          <mxGeometry relative="1" as="geometry">
            <Array as="points" />
            <mxPoint x="480" y="314" as="targetPoint" />
          </mxGeometry>
        </mxCell>
        <mxCell id="-Nvpflhu0W0NFWy76Kld-20" value="&lt;div&gt;Leilao&lt;/div&gt;" style="swimlane;fontStyle=1;align=center;verticalAlign=top;childLayout=stackLayout;horizontal=1;startSize=25;horizontalStack=0;resizeParent=1;resizeParentMax=0;resizeLast=0;collapsible=0;marginBottom=0;whiteSpace=wrap;html=1;" parent="1" vertex="1">
          <mxGeometry x="425" y="585" width="335" height="189" as="geometry" />
        </mxCell>
        <mxCell id="3" value="- item: String" style="text;strokeColor=none;fillColor=none;align=left;verticalAlign=top;spacingLeft=4;spacingRight=4;overflow=hidden;rotatable=0;points=[[0,0.5],[1,0.5]];portConstraint=eastwest;whiteSpace=wrap;html=1;" parent="-Nvpflhu0W0NFWy76Kld-20" vertex="1">
          <mxGeometry y="25" width="335" height="26" as="geometry" />
        </mxCell>
        <mxCell id="9" value="- maiorLance: String" style="text;strokeColor=none;fillColor=none;align=left;verticalAlign=top;spacingLeft=4;spacingRight=4;overflow=hidden;rotatable=0;points=[[0,0.5],[1,0.5]];portConstraint=eastwest;whiteSpace=wrap;html=1;" parent="-Nvpflhu0W0NFWy76Kld-20" vertex="1">
          <mxGeometry y="51" width="335" height="26" as="geometry" />
        </mxCell>
        <mxCell id="8" value="- lanceAtual: Double" style="text;strokeColor=none;fillColor=none;align=left;verticalAlign=top;spacingLeft=4;spacingRight=4;overflow=hidden;rotatable=0;points=[[0,0.5],[1,0.5]];portConstraint=eastwest;whiteSpace=wrap;html=1;" parent="-Nvpflhu0W0NFWy76Kld-20" vertex="1">
          <mxGeometry y="77" width="335" height="26" as="geometry" />
        </mxCell>
        <mxCell id="4" value="- participantes: List&amp;lt;Participantes&amp;gt;" style="text;strokeColor=none;fillColor=none;align=left;verticalAlign=top;spacingLeft=4;spacingRight=4;overflow=hidden;rotatable=0;points=[[0,0.5],[1,0.5]];portConstraint=eastwest;whiteSpace=wrap;html=1;" parent="-Nvpflhu0W0NFWy76Kld-20" vertex="1">
          <mxGeometry y="103" width="335" height="26" as="geometry" />
        </mxCell>
        <mxCell id="-Nvpflhu0W0NFWy76Kld-21" value="" style="line;strokeWidth=1;fillColor=none;align=left;verticalAlign=middle;spacingTop=-1;spacingLeft=3;spacingRight=3;rotatable=0;labelPosition=right;points=[];portConstraint=eastwest;strokeColor=inherit;" parent="-Nvpflhu0W0NFWy76Kld-20" vertex="1">
          <mxGeometry y="129" width="335" height="8" as="geometry" />
        </mxCell>
        <mxCell id="10" value="+ fazerLance(participante: Participante, lance: double): void" style="text;strokeColor=none;fillColor=none;align=left;verticalAlign=top;spacingLeft=4;spacingRight=4;overflow=hidden;rotatable=0;points=[[0,0.5],[1,0.5]];portConstraint=eastwest;whiteSpace=wrap;html=1;" parent="-Nvpflhu0W0NFWy76Kld-20" vertex="1">
          <mxGeometry y="137" width="335" height="26" as="geometry" />
        </mxCell>
        <mxCell id="11" value="+ adicionarParticipante(participante: Participante): void" style="text;strokeColor=none;fillColor=none;align=left;verticalAlign=top;spacingLeft=4;spacingRight=4;overflow=hidden;rotatable=0;points=[[0,0.5],[1,0.5]];portConstraint=eastwest;whiteSpace=wrap;html=1;" parent="-Nvpflhu0W0NFWy76Kld-20" vertex="1">
          <mxGeometry y="163" width="335" height="26" as="geometry" />
        </mxCell>
        <mxCell id="-Nvpflhu0W0NFWy76Kld-53" value="Observable" style="swimlane;fontStyle=1;align=center;verticalAlign=top;childLayout=stackLayout;horizontal=1;startSize=30;horizontalStack=0;resizeParent=1;resizeParentMax=0;resizeLast=0;collapsible=0;marginBottom=0;whiteSpace=wrap;html=1;" parent="1" vertex="1">
          <mxGeometry x="552.5" y="490" width="80" height="38" as="geometry" />
        </mxCell>
        <mxCell id="-Nvpflhu0W0NFWy76Kld-56" value="" style="line;strokeWidth=1;fillColor=none;align=left;verticalAlign=middle;spacingTop=-1;spacingLeft=3;spacingRight=3;rotatable=0;labelPosition=right;points=[];portConstraint=eastwest;strokeColor=inherit;" parent="-Nvpflhu0W0NFWy76Kld-53" vertex="1">
          <mxGeometry y="30" width="80" height="8" as="geometry" />
        </mxCell>
        <mxCell id="2" value="Participante" style="swimlane;fontStyle=1;align=center;verticalAlign=top;childLayout=stackLayout;horizontal=1;startSize=30;horizontalStack=0;resizeParent=1;resizeParentMax=0;resizeLast=0;collapsible=0;marginBottom=0;whiteSpace=wrap;html=1;" parent="1" vertex="1">
          <mxGeometry x="200" y="585" width="180" height="142" as="geometry" />
        </mxCell>
        <mxCell id="-Nvpflhu0W0NFWy76Kld-59" value="- nome: String" style="text;strokeColor=none;fillColor=none;align=left;verticalAlign=top;spacingLeft=4;spacingRight=4;overflow=hidden;rotatable=0;points=[[0,0.5],[1,0.5]];portConstraint=eastwest;whiteSpace=wrap;html=1;" parent="2" vertex="1">
          <mxGeometry y="30" width="180" height="26" as="geometry" />
        </mxCell>
        <mxCell id="-Nvpflhu0W0NFWy76Kld-60" value="- ultimaNotificacao: String" style="text;strokeColor=none;fillColor=none;align=left;verticalAlign=top;spacingLeft=4;spacingRight=4;overflow=hidden;rotatable=0;points=[[0,0.5],[1,0.5]];portConstraint=eastwest;whiteSpace=wrap;html=1;" parent="2" vertex="1">
          <mxGeometry y="56" width="180" height="26" as="geometry" />
        </mxCell>
        <mxCell id="5" value="" style="line;strokeWidth=1;fillColor=none;align=left;verticalAlign=middle;spacingTop=-1;spacingLeft=3;spacingRight=3;rotatable=0;labelPosition=right;points=[];portConstraint=eastwest;strokeColor=inherit;" parent="2" vertex="1">
          <mxGeometry y="82" width="180" height="8" as="geometry" />
        </mxCell>
        <mxCell id="6" value="+ getUltimaNotificacao(): String" style="text;strokeColor=none;fillColor=none;align=left;verticalAlign=top;spacingLeft=4;spacingRight=4;overflow=hidden;rotatable=0;points=[[0,0.5],[1,0.5]];portConstraint=eastwest;whiteSpace=wrap;html=1;" parent="2" vertex="1">
          <mxGeometry y="90" width="180" height="26" as="geometry" />
        </mxCell>
        <mxCell id="7" value="+ getNome(): String" style="text;strokeColor=none;fillColor=none;align=left;verticalAlign=top;spacingLeft=4;spacingRight=4;overflow=hidden;rotatable=0;points=[[0,0.5],[1,0.5]];portConstraint=eastwest;whiteSpace=wrap;html=1;" parent="2" vertex="1">
          <mxGeometry y="116" width="180" height="26" as="geometry" />
        </mxCell>
      </root>
    </mxGraphModel>
  </diagram>
</mxfile>
